<?xml version="1.0" standalone="no"?>
<!DOCTYPE svg PUBLIC "-//W3C//DTD SVG 20010904//EN"
 "http://www.w3.org/TR/2001/REC-SVG-20010904/DTD/svg10.dtd">
<svg version="1.0" xmlns="http://www.w3.org/2000/svg"
 width="1069.000000pt" height="1069.000000pt" viewBox="0 0 1069.000000 1069.000000"
 preserveAspectRatio="xMidYMid meet">
<metadata>
Created by potrace 1.14, written by Peter Selinger 2001-2017
</metadata>
<g transform="translate(0.000000,1069.000000) scale(0.100000,-0.100000)"
fill="#000000" stroke="none">
<path d="M1587 10638 c-10 -86 0 -472 13 -505 11 -30 20 -35 98 -59 47 -15 90
-27 96 -29 116 -24 180 -72 210 -154 14 -41 19 -88 21 -248 5 -249 15 -478 30
-643 10 -113 25 -257 31 -297 5 -41 11 -84 19 -148 3 -27 10 -72 15 -100 5
-27 11 -63 13 -80 38 -262 161 -751 250 -998 21 -58 23 -67 9 -62 -182 70
-321 65 -486 -20 -61 -31 -81 -46 -79 -60 1 -11 5 -64 8 -120 4 -55 9 -113 11
-130 2 -16 6 -75 10 -130 3 -55 8 -111 9 -125 2 -14 4 -40 4 -58 l1 -32 43 27
c122 77 275 124 492 149 92 11 504 4 655 -11 25 -2 95 -7 155 -10 61 -4 124
-8 140 -10 207 -24 782 -24 900 -1 22 4 130 18 142 18 5 0 18 4 31 9 13 5 37
11 55 14 18 3 77 20 132 37 283 91 495 257 629 490 132 232 182 610 130 988
-40 296 -133 656 -231 900 -200 495 -492 792 -913 930 -241 78 -452 97 -855
75 -326 -18 -602 -9 -815 26 -36 6 -78 13 -94 15 -16 2 -80 17 -141 33 -264
69 -479 173 -669 322 -27 22 -52 39 -56 39 -4 0 -10 -19 -13 -42z m1742 -1202
c131 -11 216 -24 356 -51 30 -6 165 -41 265 -68 93 -26 273 -93 365 -136 325
-152 497 -394 498 -705 1 -50 -2 -111 -6 -136 -46 -317 -334 -531 -787 -587
-85 -10 -506 -10 -590 1 -154 19 -321 71 -339 105 -27 49 -93 347 -111 496 -6
50 -13 104 -15 120 -24 175 -25 674 -1 790 2 11 7 40 10 65 4 25 8 54 10 65 3
11 5 25 5 32 1 6 9 13 19 15 25 5 232 1 321 -6z"/>
<path d="M5740 6632 c-37 -4 -214 -65 -218 -74 -2 -5 -9 -8 -16 -8 -19 0 -162
-77 -246 -133 -190 -126 -336 -269 -462 -451 -102 -148 -183 -306 -239 -469
-19 -53 -37 -97 -41 -97 -8 0 -9 17 -11 185 -1 88 10 287 18 336 2 13 9 60 15
104 14 91 12 84 35 185 24 107 62 238 95 329 l29 78 -37 -3 c-20 -1 -84 -5
-142 -9 -58 -3 -130 -8 -160 -10 -30 -2 -98 -6 -150 -10 -52 -3 -126 -8 -165
-10 -38 -3 -113 -7 -165 -10 -52 -3 -129 -7 -170 -10 -133 -8 -262 -15 -404
-20 -76 -3 -142 -7 -146 -10 -4 -3 -6 -17 -5 -32 2 -16 6 -58 9 -95 10 -111
36 -147 106 -147 69 0 221 -14 245 -23 79 -29 97 -71 101 -223 5 -222 14 -389
29 -525 21 -191 25 -219 35 -275 5 -27 12 -72 15 -100 22 -172 115 -576 170
-734 14 -41 24 -75 22 -76 -1 -2 -42 8 -92 20 -99 25 -236 28 -308 5 l-39 -11
7 -177 c4 -97 8 -191 8 -209 l-1 -32 53 29 c112 62 247 85 495 83 231 -1 462
-40 675 -112 49 -17 91 -31 92 -31 1 0 -3 15 -8 33 -14 47 -90 338 -95 367 -3
13 -14 62 -25 109 -11 47 -22 101 -25 120 -3 20 -7 42 -9 49 -3 7 -7 47 -11
90 -3 42 -6 79 -7 82 -2 15 18 117 40 204 106 428 314 726 507 726 137 0 215
-132 252 -425 10 -80 11 -458 1 -565 -24 -261 -78 -498 -159 -689 -22 -51 -37
-95 -34 -98 5 -5 224 -60 351 -88 44 -10 105 -23 135 -31 30 -7 66 -15 80 -18
14 -2 79 -16 145 -30 66 -14 131 -27 145 -30 14 -2 70 -13 125 -24 55 -11 116
-23 136 -26 l36 -6 31 80 c18 45 32 85 32 88 0 4 -61 30 -136 57 -152 56 -156
60 -169 161 -4 27 -8 60 -11 74 -2 14 -7 108 -10 210 l-6 185 32 89 c65 182
202 476 246 527 8 8 14 19 14 23 0 11 115 182 173 256 145 188 302 294 421
284 47 -4 90 -41 107 -91 18 -55 15 -191 -7 -322 -3 -18 -21 -88 -40 -155 -19
-66 -36 -128 -38 -136 -12 -46 -116 -318 -147 -388 -16 -35 -29 -66 -29 -68 0
-17 -137 -286 -188 -371 -34 -56 -62 -104 -62 -106 0 -2 57 -2 128 0 240 6
1067 6 1185 -1 l118 -6 -46 87 c-25 49 -52 96 -59 106 -13 16 -69 31 -162 42
-18 2 -65 10 -105 18 -41 8 -118 23 -173 33 l-99 18 30 25 c16 14 52 44 79 66
73 59 303 292 355 360 147 191 262 424 285 573 3 20 9 53 13 72 22 108 9 302
-29 420 -64 202 -225 374 -418 446 -90 34 -151 45 -262 45 -238 1 -449 -85
-656 -268 -140 -123 -372 -403 -484 -583 -84 -135 -81 -131 -74 -85 4 22 8 49
10 60 2 11 7 52 10 90 3 39 8 74 11 79 10 15 11 440 2 521 -39 342 -178 518
-404 512 -33 -1 -71 -3 -85 -5z"/>
<path d="M7477 3654 c-1 -1 -45 -5 -97 -8 -576 -38 -1005 -341 -1230 -866
-106 -249 -179 -578 -207 -940 -10 -123 -10 -583 -1 -680 61 -619 296 -984
713 -1109 123 -37 221 -49 385 -46 177 3 204 6 383 41 166 33 139 26 297 68
349 91 716 243 883 367 64 47 68 52 63 82 -8 44 -8 261 -1 338 27 284 100 541
215 757 41 76 47 92 32 93 -17 0 -102 2 -662 14 -530 11 -882 22 -952 30 -26
3 -28 1 -29 -38 -4 -109 8 -186 33 -219 9 -12 53 -24 138 -39 69 -12 138 -28
154 -36 59 -30 104 -100 120 -188 4 -22 8 -41 8 -42 -1 -2 3 -17 9 -35 5 -18
18 -82 29 -143 71 -401 24 -583 -169 -656 -82 -30 -188 -28 -257 6 -103 50
-189 177 -249 365 -35 111 -85 323 -110 465 -2 17 -7 41 -10 55 -3 14 -9 50
-15 80 -6 30 -12 64 -14 75 -2 11 -6 41 -10 66 -4 25 -9 57 -11 70 -16 91 -44
273 -50 319 -4 30 -9 64 -11 74 -7 38 -18 223 -18 301 1 227 50 458 132 620
44 89 103 168 186 251 122 121 275 204 444 240 148 31 425 16 561 -32 177 -61
288 -161 238 -212 -14 -13 -46 -16 -189 -18 -95 -1 -186 -4 -201 -8 -129 -30
-261 -116 -348 -226 -111 -141 -115 -314 -9 -427 34 -36 114 -103 124 -103 3
0 23 -11 44 -24 73 -49 262 -113 384 -131 139 -21 425 -28 494 -12 12 3 39 8
60 12 184 29 306 128 341 277 10 40 9 214 -1 283 -54 369 -289 632 -686 768
-86 29 -215 63 -280 72 -25 4 -52 8 -60 10 -15 3 -91 14 -145 20 -72 9 -442
24 -448 19z"/>
</g>
</svg>
